<svg xmlns="http://www.w3.org/2000/svg" viewBox="0 0 1024 1024" role="img" aria-label="Droxion logo">
  <defs>
    <linearGradient id="droxionGradient" x1="0.15" y1="0.95" x2="0.9" y2="0.08">
      <stop offset="0" stop-color="#12d8ff"/>
      <stop offset="0.32" stop-color="#4169ff"/>
      <stop offset="0.62" stop-color="#9a2cff"/>
      <stop offset="1" stop-color="#ff3fbd"/>
    </linearGradient>
    <linearGradient id="foldGradient" x1="0" y1="1" x2="1" y2="0">
      <stop offset="0" stop-color="#12d8ff"/>
      <stop offset="0.45" stop-color="#3a54ff"/>
      <stop offset="1" stop-color="#8a22ff"/>
    </linearGradient>
    <radialGradient id="backgroundGlow" cx="50%" cy="45%" r="70%">
      <stop offset="0" stop-color="#1b0b44"/>
      <stop offset="0.58" stop-color="#0d0824"/>
      <stop offset="1" stop-color="#05050c"/>
    </radialGradient>
    <filter id="softGlow" x="-25%" y="-25%" width="150%" height="150%">
      <feGaussianBlur stdDeviation="14" result="blur"/>
      <feMerge><feMergeNode in="blur"/><feMergeNode in="SourceGraphic"/></feMerge>
    </filter>
  </defs>
  <rect width="1024" height="1024" rx="190" fill="url(#backgroundGlow)"/>
  <circle cx="720" cy="300" r="250" fill="#b81cff" opacity="0.07"/>
  <circle cx="300" cy="760" r="220" fill="#008cff" opacity="0.08"/>
  <g filter="url(#softGlow)">
    <path fill="url(#droxionGradient)" fill-rule="evenodd" d="M252 176h294c201 0 326 143 326 336S747 848 546 848H252V176Zm202 181v310h92c99 0 157-61 157-155s-58-155-157-155h-92Z"/>
    <path d="M252 176 454 356v311L252 848V176Z" fill="url(#foldGradient)" opacity="0.98"/>
    <path d="M252 176 454 356" fill="none" stroke="#ffd6ff" stroke-width="12" stroke-linecap="round" opacity="0.55"/>
    <path d="M252 848 454 667" fill="none" stroke="#8defff" stroke-width="11" stroke-linecap="round" opacity="0.55"/>
    <path fill="none" stroke="#ffffff" stroke-opacity="0.42" stroke-width="6" d="M252 176h294c201 0 326 143 326 336S747 848 546 848H252"/>
  </g>
</svg>
